<svg width="28" height="28" viewBox="0 0 28 28" fill="none" xmlns="http://www.w3.org/2000/svg">
<path d="M10.0161 3.65627e-08C9.75375 -7.12318e-05 9.50212 0.104048 9.31649 0.289475C9.13086 0.474902 9.02644 0.726465 9.02615 0.988876V7.91852H27.3295L18.9942 0.00214627L10.0161 3.65627e-08ZM28 10.0149C28.0001 9.88499 27.9746 9.75639 27.9249 9.63642C27.8752 9.51645 27.8023 9.40748 27.7104 9.31575C27.6185 9.22403 27.5094 9.15135 27.3894 9.1019C27.2693 9.05245 27.1407 9.0272 27.0109 9.02759H20.0837V27.3355L27.9968 18.9958L28 10.0149ZM17.9847 28C18.2466 27.9993 18.4975 27.8947 18.6824 27.7093C18.8673 27.5238 18.9712 27.2725 18.9712 27.0106V20.0817H0.668637L9.00255 27.9981L17.9847 28ZM3.63848e-08 17.9862C-3.51895e-05 18.1161 0.0255078 18.2448 0.0751706 18.3648C0.124833 18.4848 0.197644 18.5939 0.289444 18.6857C0.381244 18.7776 0.490234 18.8505 0.610196 18.9002C0.730158 18.95 0.858742 18.9756 0.988602 18.9756H7.91632V0.666405L0.00107226 9.00398L3.63848e-08 17.9862Z" fill="#0659A5"/>
</svg>
